# xmcd
#
# Track frame offsets: 
#        150
#        16324
#        34006
#        52417
#        69745
#        89196
#        107741
#        124477
#        144415
#        164589
#        185610
#        203789
#        222834
#
# Disc length: 3231 seconds
#
# Revision: 1
# Processed by: cddbd v1.5.1PL2 Copyright (c) Steve Scherf et al.
# Submitted via: ExactAudioCopy v0.90b4
#
DISCID=cf0c9d0d
DTITLE=Doc Walker - Everyone Aboard
DYEAR=2003
DGENRE=Country
TTITLE0=The Show Is Free
TTITLE1=Get Up
TTITLE2=Just Drive
TTITLE3=Forgive Me (For Giving A Damn)
TTITLE4=Raining On The Moon
TTITLE5=Right Here Beside Me
TTITLE6=North Dakota Boy
TTITLE7=I Am Ready
TTITLE8=Empty Man
TTITLE9=Lay Me Down
TTITLE10=I Am
TTITLE11=Heroes In The Sun
TTITLE12=Sister Chardonnay
EXTD=
EXTT0=
EXTT1=
EXTT2=
EXTT3=
EXTT4=
EXTT5=
EXTT6=
EXTT7=
EXTT8=
EXTT9=
EXTT10=
EXTT11=
EXTT12=
PLAYORDER=
